<svg width="24" height="24" viewBox="0 0 24 24" fill="none" xmlns="http://www.w3.org/2000/svg">
<g clip-path="url(#clip0_103_7)">
<path d="M17.2795 12.3027C18.5423 11.5825 19.8016 10.8565 21.0686 10.1439C22.2713 9.46721 23.6861 10.0912 23.9589 11.4079C24.1166 12.1696 23.7742 12.9924 23.0816 13.3931C20.8112 14.7069 18.5375 16.0155 16.2524 17.3041C15.5452 17.7029 14.8166 17.6295 14.1721 17.1408C13.5174 16.6446 13.311 15.9602 13.4646 15.1636C13.6399 14.5572 14.0411 14.1518 14.5884 13.8485C15.493 13.3471 16.3832 12.8193 17.2795 12.3027Z" fill="#FABC05"/>
<path d="M18.2065 11.779C16.947 11.0532 15.6842 10.3332 14.4291 9.6001C13.2376 8.90415 13.0745 7.37541 14.0865 6.48248C14.6718 5.96611 15.5607 5.84909 16.2565 6.24426C18.5376 7.53981 20.8157 8.84085 23.0821 10.1615C23.7835 10.5703 24.0837 11.2336 23.9799 12.0322C23.8744 12.8432 23.3808 13.3628 22.6093 13.6292C21.9927 13.7816 21.4385 13.6392 20.9004 13.3203C20.0107 12.7929 19.1053 12.2914 18.2065 11.779Z" fill="#109D58"/>
<path d="M6.72673 11.2655C5.91851 11.7215 5.10983 12.1766 4.30236 12.6339C3.83014 12.9015 3.36298 13.1781 2.88833 13.4412C1.93179 13.9714 0.795357 13.6606 0.253013 12.7268C-0.26458 11.8358 0.0328884 10.6805 0.954076 10.1466C3.20642 8.84114 5.46458 7.54522 7.73089 6.26373C8.42595 5.87079 9.14708 5.92022 9.78983 6.39005C10.4682 6.88595 10.6903 7.58376 10.538 8.40175C10.4435 8.59975 10.387 8.83183 10.2455 8.98776C10.0154 9.24143 9.75383 9.4843 9.46264 9.66266C8.56151 10.2144 7.64014 10.7337 6.72673 11.2655Z" fill="#E94436"/>
<path d="M5.80006 11.7769C6.60191 12.2439 7.40319 12.7118 8.20578 13.1775C8.67519 13.4498 9.15003 13.7132 9.61682 13.9898C10.5575 14.5474 10.8548 15.6799 10.3115 16.6132C9.79307 17.5039 8.63685 17.8258 7.7105 17.3005C5.44578 16.0163 3.1865 14.7225 0.935752 13.4143C0.245471 13.0131 -0.0719668 12.3682 0.0164394 11.5806C0.109721 10.7492 0.607252 10.2093 1.39691 9.93129C1.61675 9.91369 1.84738 9.84611 2.05419 9.88986C2.39047 9.96098 2.73313 10.0644 3.03425 10.2256C3.96603 10.7246 4.87953 11.2573 5.80006 11.7769Z" fill="#4385F3"/>
</g>
<defs>
<clipPath id="clip0_103_7">
<rect width="24" height="11.6364" fill="white" transform="translate(0 6)"/>
</clipPath>
</defs>
</svg>
