<svg width="21" height="21" viewBox="0 0 24 24" fill="none" xmlns="http://www.w3.org/2000/svg">
<path d="M20.216 6.41505L20.084 5.74905C19.965 5.15105 19.696 4.58605 19.083 4.37005C18.886 4.30105 18.663 4.27205 18.513 4.12905C18.361 3.98605 18.317 3.76305 18.282 3.55705C18.217 3.17905 18.157 2.80105 18.09 2.42405C18.033 2.09905 17.988 1.73405 17.84 1.43705C17.645 1.03705 17.243 0.803048 16.844 0.649048C16.639 0.573025 16.43 0.508262 16.218 0.455048C15.218 0.192048 14.168 0.0950479 13.141 0.0390479C11.9078 -0.0281918 10.6713 -0.00747269 9.44099 0.101048C8.52599 0.184048 7.56099 0.285048 6.69099 0.601048C6.37299 0.717048 6.04499 0.857048 5.80299 1.10205C5.50599 1.40405 5.40999 1.87205 5.62599 2.24805C5.77999 2.51505 6.04099 2.70405 6.31799 2.82805C6.67799 2.99005 7.05499 3.11205 7.44099 3.19405C8.51599 3.43205 9.62999 3.52505 10.728 3.56405C11.9473 3.61338 13.164 3.57405 14.378 3.44605C14.6773 3.41271 14.976 3.37305 15.274 3.32705C15.626 3.27305 15.852 2.81405 15.748 2.49305C15.624 2.11005 15.291 1.96205 14.914 2.02005C14.448 2.09405 13.954 2.12805 13.532 2.16605C12.354 2.24605 11.1753 2.24805 9.99599 2.17205C9.60945 2.14657 9.22365 2.11089 8.83899 2.06505C8.75299 2.05505 8.65899 2.04005 8.58099 2.02905C8.33833 1.99238 8.09699 1.94905 7.85699 1.89905C7.74599 1.87205 7.74599 1.71405 7.85699 1.68705H7.86199C8.13932 1.62705 8.41866 1.57805 8.69999 1.54005H8.70199C8.83299 1.53105 8.96499 1.50805 9.09599 1.49205C10.2339 1.3737 11.3786 1.33361 12.522 1.37205C13.196 1.39138 13.8683 1.43938 14.539 1.51605L14.767 1.54705C15.0337 1.58705 15.2997 1.63538 15.565 1.69205C15.957 1.77705 16.46 1.80505 16.635 2.23405C16.69 2.37105 16.715 2.52205 16.746 2.66505L17.065 4.14905C17.0718 4.18087 17.0719 4.21374 17.0654 4.24562C17.0589 4.27749 17.0459 4.30769 17.0273 4.33433C17.0086 4.36097 16.9846 4.38349 16.9569 4.40047C16.9292 4.41745 16.8982 4.42854 16.866 4.43305H16.863L16.751 4.44805C15.1779 4.64791 13.5937 4.74645 12.008 4.74305C10.4368 4.74159 8.86728 4.64005 7.30899 4.43905C7.16899 4.42205 7.01599 4.39705 6.89199 4.37905C6.56599 4.33105 6.24299 4.27105 5.91899 4.21805C5.52599 4.15305 5.15099 4.18605 4.79599 4.37905C4.50599 4.53905 4.26899 4.78305 4.12099 5.08005C3.96699 5.39605 3.92199 5.74005 3.85399 6.08005C3.78499 6.42005 3.67799 6.78705 3.71899 7.13605C3.80599 7.88905 4.33199 8.50105 5.08899 8.63805C8.83247 9.30597 12.6525 9.4326 16.432 9.01405C16.5038 9.00588 16.5765 9.01392 16.6448 9.0376C16.7131 9.06127 16.7752 9.09996 16.8265 9.15082C16.8779 9.20168 16.9171 9.26341 16.9414 9.33147C16.9658 9.39953 16.9745 9.47217 16.967 9.54405L16.896 10.241L15.878 20.148C15.837 20.558 15.831 20.98 15.753 21.385C15.631 22.022 15.2 22.413 14.571 22.556C13.9923 22.6874 13.407 22.7557 12.815 22.761C12.159 22.765 11.505 22.736 10.849 22.739C10.15 22.743 9.29299 22.679 8.75399 22.159C8.27899 21.701 8.21399 20.985 8.14899 20.366L7.41799 13.353L7.09599 10.259C7.05899 9.90805 6.80999 9.56405 6.41799 9.58105C6.08199 9.59605 5.69999 9.88105 5.73999 10.26L5.96799 12.445L6.91699 21.557C7.06399 22.901 8.09099 23.625 9.36299 23.829C10.105 23.949 10.866 23.973 11.62 23.985C12.586 24.001 13.562 24.038 14.512 23.863C15.92 23.605 16.977 22.665 17.128 21.206L18.152 11.211L18.367 9.12405C18.377 9.02033 18.4204 8.92268 18.4908 8.84583C18.5611 8.76898 18.6546 8.71711 18.757 8.69805C19.159 8.62005 19.544 8.48605 19.831 8.18005C20.286 7.69205 20.377 7.05705 20.216 6.41505ZM18.738 7.18705C18.593 7.32405 18.375 7.38805 18.16 7.42005C15.744 7.77905 13.294 7.96005 10.852 7.88005C9.10399 7.82005 7.37499 7.62605 5.64499 7.38205C5.47499 7.35805 5.29199 7.32705 5.17499 7.20205C4.95499 6.96605 5.06399 6.49205 5.12099 6.20705C5.17299 5.94705 5.27299 5.59805 5.58399 5.56105C6.06799 5.50405 6.62999 5.70905 7.10999 5.78105C7.68666 5.86905 8.26566 5.93971 8.84699 5.99305C11.327 6.21905 13.849 6.18305 16.319 5.85305C16.769 5.79305 17.2173 5.72305 17.664 5.64305C18.063 5.57105 18.504 5.43705 18.744 5.84905C18.91 6.13005 18.932 6.50605 18.906 6.82305C18.8985 6.96159 18.838 7.09193 18.737 7.18705H18.738ZM12.579 11.087C11.717 11.457 10.739 11.875 9.46999 11.875C8.9397 11.8724 8.4121 11.7994 7.90099 11.658L8.77799 20.662C8.84299 21.442 9.49499 22.042 10.278 22.042C10.278 22.042 11.521 22.107 11.936 22.107C12.383 22.107 13.722 22.042 13.722 22.042C14.505 22.042 15.156 21.442 15.221 20.662L16.161 10.712C15.7369 10.5588 15.2899 10.4783 14.839 10.474C14.013 10.474 13.348 10.758 12.579 11.087Z" fill="#FFDD00"/>
</svg>
